<?xml version="1.0" standalone="no"?>
<svg xmlns:xlink="http://www.w3.org/1999/xlink" id="wave" style="transform:rotate(180deg); transition: 0.3s" viewBox="0 0 1440 100" version="1.1" xmlns="http://www.w3.org/2000/svg"><defs><linearGradient id="sw-gradient-0" x1="0" x2="0" y1="1" y2="0"><stop stop-color="rgba(222, 227, 232, 1)" offset="0%"/><stop stop-color="rgba(222, 227, 232, 1)" offset="100%"/></linearGradient></defs><path style="transform:translate(0, 0px); opacity:1" fill="url(#sw-gradient-0)" d="M0,80L21.8,76.7C43.6,73,87,67,131,63.3C174.5,60,218,60,262,61.7C305.5,63,349,67,393,60C436.4,53,480,37,524,28.3C567.3,20,611,20,655,31.7C698.2,43,742,67,785,71.7C829.1,77,873,63,916,50C960,37,1004,23,1047,15C1090.9,7,1135,3,1178,13.3C1221.8,23,1265,47,1309,56.7C1352.7,67,1396,63,1440,51.7C1483.6,40,1527,20,1571,21.7C1614.5,23,1658,47,1702,50C1745.5,53,1789,37,1833,36.7C1876.4,37,1920,53,1964,56.7C2007.3,60,2051,50,2095,53.3C2138.2,57,2182,73,2225,75C2269.1,77,2313,63,2356,56.7C2400,50,2444,50,2487,45C2530.9,40,2575,30,2618,35C2661.8,40,2705,60,2749,63.3C2792.7,67,2836,53,2880,48.3C2923.6,43,2967,47,3011,55C3054.5,63,3098,77,3120,83.3L3141.8,90L3141.8,100L3120,100C3098.2,100,3055,100,3011,100C2967.3,100,2924,100,2880,100C2836.4,100,2793,100,2749,100C2705.5,100,2662,100,2618,100C2574.5,100,2531,100,2487,100C2443.6,100,2400,100,2356,100C2312.7,100,2269,100,2225,100C2181.8,100,2138,100,2095,100C2050.9,100,2007,100,1964,100C1920,100,1876,100,1833,100C1789.1,100,1745,100,1702,100C1658.2,100,1615,100,1571,100C1527.3,100,1484,100,1440,100C1396.4,100,1353,100,1309,100C1265.5,100,1222,100,1178,100C1134.5,100,1091,100,1047,100C1003.6,100,960,100,916,100C872.7,100,829,100,785,100C741.8,100,698,100,655,100C610.9,100,567,100,524,100C480,100,436,100,393,100C349.1,100,305,100,262,100C218.2,100,175,100,131,100C87.3,100,44,100,22,100L0,100Z"/></svg>